<?xml version="1.0" encoding="UTF-8"?>
<!DOCTYPE svg PUBLIC "-//W3C//DTD SVG 1.1//EN" "http://www.w3.org/Graphics/SVG/1.1/DTD/svg11.dtd">
<!-- Creator: CorelDRAW 2021 (64-Bit) -->
<svg xmlns="http://www.w3.org/2000/svg" xml:space="preserve" width="2550px" height="3300px" version="1.1" style="shape-rendering:geometricPrecision; text-rendering:geometricPrecision; image-rendering:optimizeQuality; fill-rule:evenodd; clip-rule:evenodd"
viewBox="0 0 2550 3300"
 xmlns:xlink="http://www.w3.org/1999/xlink"
 xmlns:xodm="http://www.corel.com/coreldraw/odm/2003">
 <defs>
  <style type="text/css">
   <![CDATA[
    .str0 {stroke:black;stroke-width:1.72;stroke-miterlimit:2.61313}
    .fil7 {fill:none;fill-rule:nonzero}
    .fil4 {fill:url(#id1);fill-rule:nonzero}
    .fil1 {fill:url(#id2);fill-rule:nonzero}
    .fil3 {fill:url(#id3);fill-rule:nonzero}
    .fil2 {fill:url(#id4);fill-rule:nonzero}
    .fil0 {fill:url(#id5);fill-rule:nonzero}
    .fil8 {fill:url(#id6);fill-rule:nonzero}
    .fil5 {fill:url(#id7);fill-rule:nonzero}
    .fil6 {fill:url(#id8);fill-rule:nonzero}
   ]]>
  </style>
   <clipPath id="id0">
    <rect x="1016.5" y="1623" width="448" height="79"/>
   </clipPath>
  <linearGradient id="id1" gradientUnits="userSpaceOnUse" x1="1031.1" y1="1651.5" x2="1031.1" y2="1651.5">
   <stop offset="0" style="stop-opacity:1; stop-color:#26A4FF"/>
   <stop offset="1" style="stop-opacity:1; stop-color:#0D9AFF"/>
  </linearGradient>
  <linearGradient id="id2" gradientUnits="userSpaceOnUse" xlink:href="#id1" x1="1028.1" y1="1623.3" x2="1031.1" y2="1623.3">
  </linearGradient>
  <linearGradient id="id3" gradientUnits="userSpaceOnUse" xlink:href="#id1" x1="1090.5" y1="1673.4" x2="1090.5" y2="1673.4">
  </linearGradient>
  <linearGradient id="id4" gradientUnits="userSpaceOnUse" xlink:href="#id1" x1="1015.5" y1="1660.8" x2="1015.5" y2="1660.8">
  </linearGradient>
  <linearGradient id="id5" gradientUnits="userSpaceOnUse" xlink:href="#id1" x1="1109.1" y1="1610.7" x2="1109.1" y2="1610.7">
  </linearGradient>
  <linearGradient id="id6" gradientUnits="userSpaceOnUse" xlink:href="#id1" x1="1090.48" y1="1623.32" x2="1081.25" y2="1623.32">
  </linearGradient>
  <linearGradient id="id7" gradientUnits="userSpaceOnUse" xlink:href="#id1" x1="1050" y1="1610.7" x2="1050" y2="1610.7">
  </linearGradient>
  <linearGradient id="id8" gradientUnits="userSpaceOnUse" xlink:href="#id1" x1="1024.78" y1="1642.22" x2="1015.56" y2="1642.22">
  </linearGradient>
 </defs>
 <g id="Layer_x0020_1">
  <metadata id="CorelCorpID_0Corel-Layer"/>
  <g id="_2037903823248" filter="url(#filter0_d_2164_2166)">
   <path class="fil0" d="M1110.93 1613.88c0.27,0 0.49,-0.23 0.49,-0.51 0,-0.29 -0.22,-0.51 -0.49,-0.51 -0.27,0 -0.49,0.23 -0.49,0.51 0,0.28 0.22,0.51 0.49,0.51z"/>
  </g>
  <g id="_2037903821328" filter="url(#filter1_d_2164_2166)">
   <path class="fil1" d="M1030.26 1626.68c0.7,0 1.27,-0.59 1.27,-1.32 0,-0.73 -0.57,-1.32 -1.27,-1.32 -0.7,0 -1.27,0.59 -1.27,1.32 0,0.73 0.57,1.32 1.27,1.32z"/>
  </g>
  <g id="_2037903820608" filter="url(#filter2_d_2164_2166)">
   <path class="fil2" d="M1017.19 1665.33c0.7,0 1.27,-0.59 1.27,-1.32 0,-0.73 -0.56,-1.32 -1.27,-1.32 -0.7,0 -1.26,0.59 -1.26,1.32 0,0.73 0.56,1.32 1.26,1.32z"/>
  </g>
  <g id="_2037903817776" filter="url(#filter3_d_2164_2166)">
   <path class="fil3" d="M1092.32 1675.94c0.7,0 1.27,-0.59 1.27,-1.32 0,-0.73 -0.57,-1.32 -1.27,-1.32 -0.7,0 -1.27,0.59 -1.27,1.32 0,0.73 0.57,1.32 1.27,1.32z"/>
  </g>
  <g id="_2037903817056" filter="url(#filter4_d_2164_2166)">
   <path class="fil4" d="M1032.9 1653.6c0.27,0 0.49,-0.23 0.49,-0.51 0,-0.28 -0.22,-0.51 -0.49,-0.51 -0.27,0 -0.49,0.23 -0.49,0.51 0,0.28 0.22,0.51 0.49,0.51z"/>
  </g>
  <g id="_2037903815856" filter="url(#filter5_d_2164_2166)">
   <path class="fil5" d="M1051.64 1612.54c0.42,0 0.77,-0.36 0.77,-0.81 0,-0.44 -0.35,-0.8 -0.77,-0.8 -0.42,0 -0.77,0.36 -0.77,0.8 0,0.45 0.35,0.81 0.77,0.81z"/>
  </g>
  <g id="_2037903815808" filter="url(#filter6_d_2164_2166)">
   <path class="fil6" d="M1022.59 1648.14c-0.25,0.04 -0.49,-0.12 -0.56,-0.38 -0.7,-2.36 -1.06,-2.64 -3.33,-2.56 -0.26,0.01 -0.49,-0.18 -0.53,-0.44 -0.04,-0.27 0.13,-0.51 0.38,-0.59 2.17,-0.67 2.4,-0.99 2.46,-3.46 0,-0.28 0.17,-0.5 0.42,-0.54 0.26,-0.04 0.48,0.12 0.56,0.39 0.69,2.35 1.05,2.64 3.32,2.55 0.27,0 0.5,0.18 0.53,0.45 0.04,0.26 -0.11,0.5 -0.37,0.59 -2.18,0.67 -2.41,0.99 -2.45,3.46 -0.01,0.28 -0.19,0.5 -0.43,0.54l0 -0.01z"/>
  </g>
  <g id="_2037903840720" filter="url(#filter7_f_2164_2166)">
   <path class="fil7 str0" d="M1053.04 1658.08c-22.39,8.08 -39.47,17.85 -38.15,21.81 1.33,3.97 20.55,0.62 42.94,-7.46 22.38,-8.09 39.46,-17.86 38.14,-21.82 -1.32,-3.96 -20.55,-0.62 -42.93,7.47z"/>
  </g>
  <g id="_2037903840960" filter="url(#filter8_d_2164_2166)">
   <path class="fil8" d="M1087.1 1630.82c-0.34,-0.05 -0.59,-0.36 -0.59,-0.74 -0.01,-3.4 -0.38,-3.93 -3.41,-4.75 -0.35,-0.1 -0.58,-0.45 -0.54,-0.81 0.05,-0.36 0.36,-0.62 0.73,-0.62 3.12,0.01 3.55,-0.32 4.56,-3.56 0.11,-0.36 0.43,-0.58 0.76,-0.53 0.36,0.05 0.6,0.35 0.6,0.74 0.01,3.39 0.38,3.92 3.4,4.74 0.36,0.1 0.59,0.44 0.54,0.81 -0.05,0.36 -0.35,0.62 -0.72,0.62 -3.13,0 -3.56,0.32 -4.56,3.57 -0.12,0.36 -0.44,0.58 -0.77,0.53l0 0z"/>
  </g>
  <g style="clip-path:url(#id0)">
   <image id="Object_x0020_1" x="1016.5" y="1623" width="448" height="79" xlink:href="logo-text-1_ImgID1.png"/>
  </g>
 </g>
</svg>
